# Blender 3.6.0
# www.blender.org
mtllib model.mtl
o Mesh_0
v -0.227245 -0.450800 -0.434126
v -0.024839 -0.179185 -0.353216
v 0.071802 -0.392268 -0.475661
v -0.158255 -0.096899 -0.341699
v 0.086682 -0.122790 -0.376415
v 0.232523 -0.098858 -0.300052
v 0.422390 -0.457225 -0.217016
v 0.208254 -0.473114 -0.427567
v -0.435073 -0.482230 -0.170164
v 0.187301 0.050150 -0.213313
v -0.180052 0.115469 -0.250488
v 0.115711 0.109312 -0.282826
v 0.005273 0.044495 -0.308341
v 0.140010 0.236842 -0.174454
v -0.002603 0.286469 -0.254429
v -0.019704 0.236577 -0.229443
v -0.126852 0.297028 -0.217102
v 0.351739 -0.369887 -0.325450
v -0.413745 -0.406424 -0.238759
v 0.214629 -0.181559 -0.276728
v -0.158183 0.238684 -0.167991
v -0.339231 -0.103655 -0.155610
v -0.228622 0.036393 -0.196666
v 0.088505 0.506554 -0.106761
v 0.104323 -0.955248 -0.080054
v 0.018818 -0.491239 -0.466191
v -0.481224 -0.418093 0.042009
v -0.020064 -0.876939 -0.209385
v 0.458849 -0.398043 -0.075201
v -0.121523 0.501571 -0.047699
v 0.272714 0.105972 -0.125354
v -0.168554 -0.925631 -0.106180
v -0.257566 -0.207299 -0.246569
v 0.275077 0.047206 0.048421
v -0.217313 0.238705 -0.025140
v -0.044614 -0.503830 -0.111145
v 0.436609 -0.474803 0.117215
v -0.257106 0.117916 -0.160329
v -0.302606 0.011540 -0.062421
v 0.137981 0.281750 -0.207311
v -0.080458 0.498875 -0.139201
v 0.059083 -0.506596 -0.117606
v -0.156387 -0.495380 -0.027744
v -0.141930 -0.957583 0.048877
v 0.153817 -0.899279 -0.124833
v -0.120998 -0.612725 -0.063035
v -0.221522 0.067866 0.183450
v 0.104002 0.514593 0.052460
v -0.128142 0.582480 -0.004512
v -0.362270 -0.113186 0.067197
v 0.044472 0.552179 -0.147011
v -0.297332 -0.161754 0.164959
v 0.129962 0.542539 -0.069883
v 0.347417 -0.083687 -0.105179
v 0.356658 -0.104632 0.071358
v 0.225939 0.297408 -0.053681
v 0.289770 0.106953 -0.013786
v 0.169602 0.275281 0.153940
v 0.000047 0.845619 -0.010652
v -0.115581 -0.535699 0.026728
v -0.070266 -0.506940 0.084585
v -0.298124 0.099961 0.025332
v 0.204643 0.237184 -0.030079
v 0.153466 0.240171 0.129655
v -0.157376 0.227449 0.145126
v -0.246161 0.284990 -0.040854
v 0.022878 0.550988 0.119487
v 0.009154 0.493129 0.115835
v 0.025245 -0.511809 0.088282
v 0.293701 -0.460240 0.364233
v 0.084803 -0.500467 -0.009569
v -0.100601 0.496753 0.090184
v -0.162076 -0.900646 0.113517
v -0.194158 -0.096092 0.305530
v -0.029587 -0.912076 0.180668
v -0.357244 -0.175480 -0.006262
v 0.259618 0.094656 0.122277
v 0.020929 -0.956745 0.127654
v 0.176494 -0.890471 0.077176
v 0.329580 -0.190048 -0.079183
v 0.114159 0.096714 0.255958
v 0.142909 0.035806 0.232265
v 0.431629 -0.401145 0.158754
v 0.266227 -0.198257 0.219522
v -0.034521 0.303084 0.220446
v -0.179615 0.303469 0.150109
v -0.015412 0.229670 0.203003
v 0.280457 -0.138858 0.227790
v 0.085014 -0.098712 0.349216
v -0.089177 0.106877 0.272219
v -0.187314 -0.403306 0.426213
v -0.391988 -0.413990 0.261941
v -0.373184 -0.479497 0.269612
v -0.034709 0.040677 0.266325
v -0.068385 -0.164278 0.320006
v 0.137480 -0.170094 0.287169
v 0.144415 -0.405537 0.437534
v -0.040698 -0.477698 0.451992
vn -0.1330 -0.0236 -0.9908
vn 0.2144 -0.2061 -0.9548
vn -0.2045 0.4163 -0.8859
vn 0.4446 0.2366 -0.8639
vn 0.3837 0.4830 -0.7871
vn 0.2559 0.5663 -0.7835
vn -0.0976 0.3340 -0.9375
vn -0.1897 -0.9463 -0.2620
vn -0.3344 -0.4243 -0.8415
vn -0.1506 -0.1066 -0.9828
vn 0.3393 0.4915 -0.8021
vn 0.2113 -0.6989 -0.6833
vn 0.4797 -0.3328 -0.8119
vn 0.6830 -0.2834 -0.6732
vn -0.7166 -0.3462 -0.6055
vn -0.4061 0.5254 -0.7477
vn 0.3734 0.5487 -0.7480
vn 0.4305 -0.4187 -0.7996
vn 0.1156 -0.9920 -0.0515
vn -0.3960 -0.3379 -0.8538
vn 0.7082 0.0280 -0.7055
vn 0.6478 0.4179 -0.6370
vn -0.0086 0.3790 -0.9254
vn 0.2606 0.5959 -0.7596
vn -0.3642 0.5910 -0.7198
vn -0.1501 0.3589 -0.9212
vn -0.2968 -0.3443 -0.8907
vn 0.2817 -0.5051 -0.8158
vn -0.7170 0.0455 -0.6956
vn 0.2450 -0.5652 -0.7877
vn -0.2331 0.3963 -0.8880
vn -0.7596 0.0243 -0.6499
vn -0.5007 0.7407 -0.4480
vn -0.3622 -0.4787 -0.7998
vn 0.2252 -0.7223 -0.6539
vn -0.0342 -0.9917 -0.1236
vn 0.1301 -0.9898 -0.0576
vn 0.8918 0.2877 -0.3493
vn -0.5967 0.4417 -0.6699
vn 0.6982 0.6066 -0.3802
vn 0.8292 -0.3105 -0.4647
vn -0.3881 0.2619 -0.8836
vn 0.2982 0.4436 -0.8452
vn -0.6788 0.3463 -0.6476
vn 0.1396 0.5112 -0.8480
vn -0.0487 -0.8745 -0.4826
vn 0.0988 -0.9950 -0.0176
vn -0.9709 0.0644 -0.2307
vn -0.5990 0.1668 -0.7832
vn -0.0535 0.2510 -0.9665
vn -0.8268 -0.0288 -0.5617
vn -0.8517 0.3472 -0.3925
vn 0.8147 0.5008 -0.2924
vn 0.8297 -0.2599 -0.4940
vn -0.9292 0.3607 -0.0807
vn -0.7846 0.5212 -0.3359
vn 0.7310 0.4952 -0.4695
vn 0.1818 -0.5460 -0.8178
vn -0.8662 -0.0830 -0.4927
vn -0.7632 0.4238 -0.4877
vn -0.7352 0.5618 -0.3793
vn 0.8841 -0.2492 -0.3952
vn 0.7223 0.6106 -0.3248
vn 0.6692 -0.0096 -0.7430
vn -0.2197 0.3836 -0.8970
vn -0.7110 0.2010 -0.6739
vn 0.4468 0.1241 -0.8860
vn -0.8884 0.4149 -0.1963
vn -0.8596 -0.4123 -0.3020
vn 0.6919 -0.6810 -0.2397
vn 0.9192 -0.3690 -0.1373
vn -0.7453 0.5909 -0.3086
vn -0.7549 -0.5766 -0.3124
vn 0.7968 -0.4429 -0.4111
vn -0.1168 -0.9916 -0.0560
vn 0.8437 0.5264 0.1051
vn -0.0883 -0.9785 -0.1865
vn 0.9080 -0.4146 -0.0604
vn 0.7111 0.6641 -0.2310
vn -0.9537 0.2349 -0.1880
vn 0.7815 0.3899 -0.4871
vn -0.9012 0.1444 -0.4087
vn -0.9888 0.1486 0.0123
vn 0.9432 0.2319 -0.2377
vn -0.3461 -0.8592 -0.3767
vn 0.8372 0.5306 -0.1326
vn -0.9113 -0.4053 0.0730
vn 0.9722 0.2023 -0.1180
vn -0.8354 0.4410 -0.3281
vn -0.1867 -0.9788 -0.0839
vn 0.0573 -0.9974 0.0429
vn -0.8778 -0.3143 0.3615
vn -0.8771 0.4564 -0.1496
vn 0.8432 0.5265 -0.1087
vn 0.6692 -0.7426 -0.0276
vn -0.7805 0.3684 -0.5050
vn -0.9941 0.0390 -0.1011
vn 0.6380 0.4018 -0.6569
vn 0.7272 -0.6845 -0.0518
vn -0.6342 -0.7674 0.0940
vn -0.8300 -0.4522 0.3267
vn 0.8802 0.4745 0.0102
vn -0.8244 0.5467 0.1466
vn 0.9033 0.3348 0.2682
vn -0.7426 0.3747 0.5552
vn 0.9805 -0.1823 -0.0729
vn -0.9585 0.2353 0.1608
vn 0.9424 -0.2432 0.2298
vn 0.9765 -0.0164 0.2149
vn 0.0072 -1.0000 -0.0043
vn 0.8018 0.5526 0.2276
vn -0.8554 -0.4408 0.2720
vn 0.8890 0.3624 0.2799
vn -0.8553 0.4968 0.1471
vn 0.6849 0.3381 0.6454
vn -0.3498 -0.7004 0.6221
vn 0.9933 0.0020 0.1156
vn -0.6910 0.5660 0.4496
vn -0.9773 -0.1562 0.1428
vn -0.0145 -0.9999 0.0082
vn 0.7896 0.5637 0.2424
vn -0.2788 -0.7621 0.5844
vn 0.7979 0.3034 0.5208
vn 0.7937 -0.5478 0.2645
vn -0.8964 -0.2845 0.3399
vn -0.7923 0.0218 0.6097
vn 0.7474 0.4722 0.4674
vn -0.8475 0.4189 0.3260
vn -0.1039 -0.9943 -0.0227
vn -0.8633 0.4332 0.2589
vn -0.3601 0.3534 0.8634
vn 0.7111 -0.5144 0.4793
vn 0.4237 0.4496 0.7864
vn 0.5747 -0.1866 0.7968
vn 0.4318 -0.8864 0.1670
vn -0.0540 -0.9950 0.0835
vn 0.0426 -0.9956 0.0833
vn 0.6777 0.5204 0.5195
vn -0.2278 -0.0074 0.9737
vn -0.2944 -0.8504 0.4361
vn -0.0344 0.0812 0.9961
vn -0.8177 0.0591 0.5726
vn 0.4317 0.1463 0.8901
vn -0.4189 0.2583 0.8705
vn -0.9034 -0.2159 0.3706
vn -0.8394 0.4798 0.2553
vn 0.6182 0.4172 0.6662
vn 0.4401 -0.4347 0.7857
vn 0.7432 -0.6305 0.2241
vn -0.7957 0.2707 0.5418
vn 0.2920 0.5857 0.7561
vn -0.1805 0.5058 0.8436
vn 0.8378 -0.2241 0.4979
vn 0.6766 0.0332 0.7356
vn -0.3699 -0.1681 0.9137
vn 0.3404 -0.6357 0.6928
vn 0.0799 -0.9910 0.1074
vn 0.1880 -0.9822 0.0006
vn -0.8348 0.4403 0.3305
vn 0.7881 0.5876 0.1833
vn -0.5887 0.4047 0.6998
vn -0.3097 0.6013 0.7366
vn -0.3958 0.4157 0.8188
vn 0.3328 0.3949 0.8563
vn -0.0398 -0.9958 0.0825
vn 0.7044 0.3984 0.5874
vn 0.9476 -0.2540 0.1940
vn 0.2878 -0.1498 0.9459
vn -0.4152 -0.3112 0.8548
vn 0.4150 -0.2222 0.8823
vn 0.4897 0.4603 0.7404
vn 0.5409 0.4071 0.7360
vn -0.5666 0.4722 0.6752
vn 0.4246 -0.3957 0.8143
vn -0.4186 -0.4163 0.8071
vn 0.1730 -0.2851 0.9428
vn 0.0935 0.4457 0.8903
vn -0.4669 0.5426 0.6983
vn -0.2725 0.5450 0.7930
vn 0.0785 -0.0241 0.9966
vn -0.6208 -0.0870 0.7791
vn -0.4277 -0.6570 0.6208
vn 0.1659 0.6054 0.7784
vn -0.1367 0.4170 0.8986
vn -0.1548 -0.0765 0.9850
vn 0.1087 -0.6055 0.7884
vn 0.1478 0.5354 0.8316
vn -0.0282 0.4176 0.9082
vn 0.5218 0.4700 0.7119
vn -0.4032 -0.5380 0.7403
vn -0.0310 0.2722 0.9617
vn 0.2474 -0.4643 0.8504
vt 0.406302 0.232310
vt 0.508501 0.192068
vt 0.379754 0.194212
vt 0.318988 0.228511
vt 0.404052 0.088473
vt 0.252583 0.176574
vt 0.296800 0.090490
vt 0.676902 0.284276
vt 0.728630 0.364235
vt 0.643972 0.384601
vt 0.667385 0.988005
vt 0.773139 0.992754
vt 0.574501 0.882339
vt 0.996964 0.763427
vt 0.941457 0.714803
vt 0.975483 0.658976
vt 0.950770 0.612299
vt 0.653386 0.453815
vt 0.996964 0.557119
vt 0.897303 0.556042
vt 0.933651 0.549826
vt 0.922319 0.620205
vt 0.191804 0.196885
vt 0.520080 0.886972
vt 0.475239 0.895777
vt 0.418492 0.999574
vt 0.511275 0.062660
vt 0.731445 0.455689
vt 0.753476 0.412277
vt 0.780710 0.847481
vt 0.852341 0.971885
vt 0.933534 0.740644
vt 0.780580 0.296626
vt 0.763463 0.257762
vt 0.771966 0.493498
vt 0.816411 0.435181
vt 0.816847 0.368618
vt 0.843452 0.555607
vt 0.867446 0.562477
vt 0.846346 0.609525
vt 0.878144 0.493180
vt 0.664369 0.209253
vt 0.730347 0.185422
vt 0.854343 0.494983
vt 0.114433 0.776149
vt 0.154295 0.744372
vt 0.097607 0.679194
vt 0.804743 0.256462
vt 0.878144 0.624467
vt 0.600106 0.000426
vt 0.669124 0.050630
vt 0.639541 0.069848
vt 0.737100 0.847699
vt 0.937121 0.879325
vt 0.143539 0.146926
vt 0.366155 0.874319
vt 0.202821 0.062660
vt 0.886817 0.462964
vt 0.839983 0.310606
vt 0.177223 0.575874
vt 0.237207 0.558683
vt 0.156706 0.473710
vt 0.226407 0.453964
vt 0.529490 0.038252
vt 0.532673 0.784538
vt 0.251452 0.817136
vt 0.089317 0.817136
vt 0.084562 0.894106
vt 0.987443 0.131714
vt 0.944453 0.139405
vt 0.999566 0.291335
vt 0.209692 0.685107
vt 0.188776 0.741308
vt 0.120997 0.646513
vt 0.932803 0.455363
vt 0.346880 0.807622
vt 0.391821 0.727478
vt 0.315191 0.750711
vt 0.269066 0.799295
vt 0.682737 0.544398
vt 0.042931 0.949275
vt 0.006505 0.905493
vt 0.025094 0.880206
vt 0.250392 0.764718
vt 0.409125 0.765285
vt 0.829040 0.417191
vt 0.839983 0.492790
vt 0.008955 0.857783
vt 0.177363 0.072038
vt 0.040537 0.118729
vt 0.009107 0.072038
vt 0.215515 0.863746
vt 0.918890 0.304774
vt 0.771466 0.566280
vt 0.790628 0.533165
vt 0.229192 0.690845
vt 0.788043 0.060855
vt 0.804806 0.037907
vt 0.724631 0.021739
vt 0.687864 0.816251
vt 0.462621 0.215153
vt 0.585892 0.284893
vt 0.563411 0.188832
vt 0.530018 0.105674
vt 0.392454 0.052587
vt 0.333446 0.022592
vt 0.251561 0.053282
vt 0.296555 0.703699
vt 0.103093 0.565711
vt 0.101224 0.618773
vt 0.127557 0.974851
vt 0.898352 0.131714
vt 0.706877 0.789445
vt 0.093833 0.959611
vt 0.834779 0.289463
vt 0.262341 0.880523
vt 0.588812 0.699089
vt 0.788973 0.802419
vt 0.330071 0.641147
vt 0.092301 0.453964
vt 0.042931 0.816283
vt 0.000434 0.571611
vt 0.057599 0.158994
vt 0.669124 0.139190
vt 0.539896 0.795034
vt 0.422188 0.685725
vt 0.713981 0.613384
vt 0.166653 0.188832
vt 0.009974 0.225439
vt 0.177884 0.248357
vt 0.144365 0.596461
vt 0.899986 0.390586
vt 0.282307 0.905924
vt 0.878594 0.069480
vt 0.384368 0.276514
vt 0.360316 0.251729
vt 0.364324 0.300872
vt 0.593739 0.149150
vt 0.301849 0.255451
vt 0.258933 0.622296
vt 0.016912 0.536704
vt 0.148807 0.288496
vt 0.234375 0.022592
vt 0.301132 0.316535
vt 0.512142 0.138545
vt 0.691917 0.116663
vt 0.856956 0.069480
vt 0.684259 0.069480
vt 0.874111 0.051038
vt 0.228879 0.611366
vt 0.270533 0.849326
vt 0.460349 0.340395
vt 0.451562 0.273536
vt 0.721169 0.767868
vt 0.139043 0.349111
vt 0.377084 0.363120
vt 0.170502 0.303936
vt 0.298972 0.287417
vt 0.760872 0.764062
vt 0.723755 0.615090
vt 0.866940 0.642038
vt 0.565781 0.172634
vt 0.682134 0.155204
vt 0.838054 0.223785
vt 0.410171 0.609324
vt 0.859302 0.165597
vt 0.576323 0.677862
vt 0.547293 0.683720
vt 0.350149 0.368095
vt 0.882481 0.138279
vt 0.933651 0.325234
vt 0.278937 0.381366
vt 0.247047 0.370381
vt 0.131396 0.051216
vt 0.204738 0.424743
vt 0.240885 0.434631
vt 0.945794 0.021739
vt 0.485426 0.342228
vt 0.288103 0.486371
vt 0.314165 0.430441
vt 0.606678 0.389875
vt 0.461274 0.402482
vt 0.423117 0.417807
vt 0.537747 0.571611
vt 0.346045 0.427867
vt 0.512556 0.575526
vt 0.425465 0.486472
vt 0.354510 0.581841
vt 0.367605 0.508737
vt 0.567833 0.449684
vt 0.653658 0.615090
vt 0.571638 0.531920
s 0
usemtl Material_0
f 26/1/1 1/2/1 3/3/1
f 8/4/2 26/1/2 3/3/2
f 3/3/3 1/2/3 2/5/3
f 8/4/4 3/3/4 18/6/4
f 18/6/5 3/3/5 20/7/5
f 3/3/6 2/5/6 20/7/6
f 4/8/7 13/9/7 5/10/7
f 1/11/8 26/12/8 9/13/8
f 33/14/9 4/15/9 2/16/9
f 2/16/10 4/15/10 5/17/10
f 13/9/11 6/18/11 5/10/11
f 2/16/12 5/17/12 20/19/12
f 6/20/13 20/21/13 5/22/13
f 7/23/14 8/4/14 18/6/14
f 9/24/15 19/25/15 1/26/15
f 33/27/16 2/5/16 1/2/16
f 6/18/17 13/9/17 10/28/17
f 10/28/18 13/9/18 12/29/18
f 42/30/19 8/31/19 37/32/19
f 11/33/20 13/9/20 23/34/20
f 31/35/21 10/28/21 12/29/21
f 12/29/22 14/36/22 31/35/22
f 13/9/23 16/37/23 12/29/23
f 16/37/24 14/36/24 12/29/24
f 4/8/25 23/34/25 13/9/25
f 11/33/26 16/37/26 13/9/26
f 15/38/27 16/39/27 17/40/27
f 14/41/28 16/39/28 15/38/28
f 33/42/29 22/43/29 4/8/29
f 14/41/30 15/38/30 40/44/30
f 15/45/31 17/46/31 41/47/31
f 23/34/32 38/48/32 11/33/32
f 16/37/33 11/33/33 38/48/33
f 21/49/34 17/40/34 16/39/34
f 28/50/35 45/51/35 25/52/35
f 36/53/36 8/31/36 42/30/36
f 37/32/37 8/31/37 7/54/37
f 7/23/38 18/6/38 29/55/38
f 33/56/39 1/26/39 19/25/39
f 18/6/40 20/7/40 80/57/40
f 54/58/41 20/21/41 6/20/41
f 21/59/42 16/37/42 38/48/42
f 40/60/43 15/61/43 24/62/43
f 22/43/44 23/34/44 4/8/44
f 41/63/45 24/62/45 15/61/45
f 32/64/46 28/50/46 25/52/46
f 8/31/47 36/53/47 26/12/47
f 19/25/48 9/24/48 27/65/48
f 36/66/49 28/67/49 32/68/49
f 36/69/50 42/70/50 28/71/50
f 66/72/51 17/46/51 21/73/51
f 41/47/52 17/46/52 30/74/52
f 29/55/53 18/6/53 80/57/53
f 54/58/54 80/75/54 20/21/54
f 22/76/55 50/77/55 39/78/55
f 23/79/56 22/76/56 39/78/56
f 54/80/57 6/18/57 10/28/57
f 41/81/58 51/82/58 24/83/58
f 23/79/59 39/78/59 38/84/59
f 30/74/60 17/46/60 66/72/60
f 76/85/61 33/56/61 19/25/61
f 14/36/62 40/86/62 63/87/62
f 14/36/63 63/87/63 31/35/63
f 24/83/64 51/82/64 53/88/64
f 59/89/65 51/90/65 41/91/65
f 36/66/66 32/68/66 46/92/66
f 28/71/67 42/70/67 45/93/67
f 76/85/68 19/25/68 27/65/68
f 33/56/69 76/85/69 22/76/69
f 10/28/70 31/35/70 34/94/70
f 57/95/71 34/94/71 31/35/71
f 21/73/72 38/84/72 35/96/72
f 66/72/73 21/73/73 35/96/73
f 56/97/74 63/98/74 40/99/74
f 26/12/75 36/53/75 43/100/75
f 80/101/76 83/102/76 29/103/76
f 25/52/77 44/104/77 32/64/77
f 7/105/78 29/106/78 37/107/78
f 54/80/79 10/28/79 34/94/79
f 38/84/80 39/78/80 62/108/80
f 40/60/81 24/62/81 56/109/81
f 30/74/82 49/110/82 41/47/82
f 46/92/83 32/68/83 73/111/83
f 42/70/84 71/112/84 45/93/84
f 43/100/85 36/53/85 60/113/85
f 31/35/86 63/87/86 57/95/86
f 73/111/87 32/68/87 44/114/87
f 79/115/88 45/93/88 71/112/88
f 60/116/89 36/66/89 46/92/89
f 43/100/90 93/117/90 26/12/90
f 71/118/91 42/30/91 37/32/91
f 47/119/92 62/108/92 39/78/92
f 38/84/93 62/108/93 35/96/93
f 48/120/94 56/109/94 24/62/94
f 48/121/95 24/83/95 53/88/95
f 49/110/96 59/122/96 41/47/96
f 22/76/97 76/85/97 50/77/97
f 53/123/98 51/90/98 59/89/98
f 25/52/99 45/51/99 79/124/99
f 9/13/100 93/117/100 27/125/100
f 76/85/101 52/126/101 50/77/101
f 55/127/102 54/80/102 34/94/102
f 50/77/103 47/119/103 39/78/103
f 53/128/104 59/129/104 48/130/104
f 72/131/105 59/122/105 49/110/105
f 80/75/106 54/58/106 55/132/106
f 61/133/107 46/92/107 73/111/107
f 63/98/108 56/97/108 58/134/108
f 34/135/109 57/136/109 77/137/109
f 44/104/110 25/52/110 78/138/110
f 77/137/111 57/136/111 63/139/111
f 65/140/112 66/72/112 35/96/112
f 56/109/113 48/120/113 58/141/113
f 72/131/114 30/74/114 66/72/114
f 59/129/115 67/142/115 48/130/115
f 60/116/116 46/92/116 61/133/116
f 29/106/117 83/143/117 37/107/117
f 47/119/118 35/96/118 62/108/118
f 30/74/119 72/131/119 49/110/119
f 9/13/120 26/12/120 93/117/120
f 64/144/121 77/137/121 63/139/121
f 73/145/122 44/104/122 78/138/122
f 69/146/123 79/147/123 71/148/123
f 58/134/124 64/149/124 63/98/124
f 65/140/125 86/150/125 66/72/125
f 60/116/126 61/133/126 43/151/126
f 88/152/127 55/153/127 34/135/127
f 35/96/128 47/119/128 65/140/128
f 43/100/129 61/154/129 93/117/129
f 72/131/130 66/72/130 86/150/130
f 67/142/131 59/129/131 72/155/131
f 77/137/132 82/156/132 34/135/132
f 68/157/133 58/158/133 48/130/133
f 67/142/134 68/157/134 48/130/134
f 79/124/135 78/138/135 25/52/135
f 61/154/136 69/159/136 98/160/136
f 70/161/137 71/118/137 37/32/137
f 34/135/138 82/156/138 88/152/138
f 72/155/139 68/157/139 67/142/139
f 73/145/140 78/138/140 75/162/140
f 69/146/141 61/163/141 73/164/141
f 74/165/142 50/77/142 52/126/142
f 75/166/143 79/147/143 69/146/143
f 75/166/144 69/146/144 73/164/144
f 93/167/145 92/168/145 27/65/145
f 76/85/146 27/65/146 52/126/146
f 64/144/147 81/169/147 77/137/147
f 78/170/148 79/147/148 75/166/148
f 55/132/149 88/171/149 80/75/149
f 50/77/150 74/165/150 47/119/150
f 81/169/151 64/144/151 87/172/151
f 72/155/152 85/173/152 68/157/152
f 70/174/153 37/107/153 83/143/153
f 81/169/154 82/156/154 77/137/154
f 87/172/155 86/175/155 65/176/155
f 87/177/156 64/149/156 58/134/156
f 98/160/157 69/159/157 70/161/157
f 70/161/158 69/159/158 71/118/158
f 27/65/159 92/168/159 52/126/159
f 83/102/160 80/101/160 84/178/160
f 65/176/161 47/179/161 90/180/161
f 65/176/162 90/180/162 87/172/162
f 86/175/163 85/173/163 72/155/163
f 68/157/164 85/173/164 58/158/164
f 93/117/165 61/154/165 98/160/165
f 84/178/166 70/181/166 83/102/166
f 84/178/167 80/101/167 88/152/167
f 85/173/168 87/172/168 58/158/168
f 86/175/169 87/172/169 85/173/169
f 88/152/170 96/182/170 84/178/170
f 70/181/171 84/178/171 96/182/171
f 88/152/172 82/156/172 89/183/172
f 52/126/173 92/168/173 91/184/173
f 96/182/174 88/152/174 89/183/174
f 94/185/175 90/180/175 47/179/175
f 81/169/176 94/185/176 82/156/176
f 90/180/177 81/169/177 87/172/177
f 91/186/178 95/187/178 52/188/178
f 74/189/179 94/185/179 47/179/179
f 94/185/180 81/169/180 90/180/180
f 92/168/181 93/167/181 91/184/181
f 52/188/182 95/187/182 74/189/182
f 89/183/183 82/156/183 94/185/183
f 94/185/184 74/189/184 89/183/184
f 74/189/185 95/187/185 89/183/185
f 89/183/186 95/187/186 96/182/186
f 96/182/187 95/187/187 97/190/187
f 95/187/188 91/186/188 97/190/188
f 97/190/189 70/181/189 96/182/189
f 98/160/190 91/191/190 93/117/190
f 91/186/191 98/192/191 97/190/191
f 98/192/192 70/181/192 97/190/192
